<svg xmlns="http://www.w3.org/2000/svg" width="1024" height="1024" viewBox="0 0 1024 1024">
  <defs>
    <linearGradient id="bg" x1="0" y1="0" x2="1" y2="1">
      <stop offset="0%" stop-color="#F59E0B"/>
      <stop offset="55%" stop-color="#D97706"/>
      <stop offset="100%" stop-color="#92400E"/>
    </linearGradient>
  </defs>
  <rect width="1024" height="1024" fill="url(#bg)"/>

  <!-- beer mug (lucide 'beer', 24x24 viewBox) — left, tilted slightly left -->
  <g transform="translate(150 300) rotate(-8 240 240) scale(20)" fill="none" stroke="#FFFFFF" stroke-width="2" stroke-linecap="round" stroke-linejoin="round" opacity="0.98">
    <path d="M17 11h1a3 3 0 0 1 0 6h-1"/>
    <path d="M9 12v6"/>
    <path d="M13 12v6"/>
    <path d="M14 7.5c-1 0-1.44.5-3 .5s-2-.5-3-.5-1.72.5-2.5.5a2.5 2.5 0 0 1 0-5c.78 0 1.57.5 2.5.5S9.44 2 11 2s2 1.5 3 1.5 1.72-.5 2.5-.5a2.5 2.5 0 0 1 0 5c-.78 0-1.5-.5-2.5-.5Z"/>
    <path d="M5 8v12a2 2 0 0 0 2 2h8a2 2 0 0 0 2-2V8"/>
  </g>

  <!-- martini (lucide 'martini', 24x24 viewBox) — right, tilted slightly right -->
  <g transform="translate(480 320) rotate(9 210 210) scale(17.5)" fill="none" stroke="#FFFFFF" stroke-width="2" stroke-linecap="round" stroke-linejoin="round" opacity="0.98">
    <path d="M12 12 4.207 4.207A.707.707 0 0 1 4.707 3h14.586a.707.707 0 0 1 .5 1.207z"/>
    <path d="M12 12v10"/>
    <path d="M7 22h10"/>
  </g>
</svg>
